<?xml version="1.0" encoding="UTF-8"?>
<svg xmlns="http://www.w3.org/2000/svg" xmlns:xlink="http://www.w3.org/1999/xlink" width="500px" height="500px" viewBox="0 0 500 500" version="1.1">
<g id="surface174229">
<path style=" stroke:none;fill-rule:nonzero;fill:rgb(44.313725%,76.078431%,100%);fill-opacity:1;" d="M 406.25 417.96875 L 93.75 417.96875 C 87.109375 417.96875 82.03125 412.890625 82.03125 406.25 L 82.03125 328.125 C 82.03125 321.484375 87.109375 316.40625 93.75 316.40625 C 100.390625 316.40625 105.46875 321.484375 105.46875 328.125 L 105.46875 394.53125 L 394.53125 394.53125 L 394.53125 328.125 C 394.53125 321.484375 399.609375 316.40625 406.25 316.40625 C 412.890625 316.40625 417.96875 321.484375 417.96875 328.125 L 417.96875 406.25 C 417.96875 412.890625 412.890625 417.96875 406.25 417.96875 Z M 406.25 417.96875 "/>
<path style=" stroke:none;fill-rule:nonzero;fill:rgb(26.666667%,29.411765%,32.941176%);fill-opacity:1;" d="M 250 300.78125 C 243.359375 300.78125 238.28125 295.703125 238.28125 289.0625 L 238.28125 93.75 C 238.28125 87.109375 243.359375 82.03125 250 82.03125 C 256.640625 82.03125 261.71875 87.109375 261.71875 93.75 L 261.71875 289.0625 C 261.71875 295.703125 256.640625 300.78125 250 300.78125 Z M 250 300.78125 "/>
<path style=" stroke:none;fill-rule:nonzero;fill:rgb(26.666667%,29.411765%,32.941176%);fill-opacity:1;" d="M 308.59375 164.0625 C 305.46875 164.0625 302.734375 162.890625 300.390625 160.546875 L 250 110.15625 L 199.609375 160.546875 C 194.921875 165.234375 187.5 165.234375 183.203125 160.546875 C 178.515625 155.859375 178.515625 148.4375 183.203125 144.140625 L 241.796875 85.546875 C 246.484375 80.859375 253.90625 80.859375 258.203125 85.546875 L 316.796875 144.140625 C 321.484375 148.828125 321.484375 156.25 316.796875 160.546875 C 314.453125 162.890625 311.71875 164.0625 308.59375 164.0625 Z M 308.59375 164.0625 "/>
</g>
</svg>
